<svg xmlns="http://www.w3.org/2000/svg" xmlns:xlink="http://www.w3.org/1999/xlink" version="1.1" x="0px" y="0px" width="100px" height="100px" viewBox="0 0 100 100" enable-background="new 0 0 100 100" xml:space="preserve">
<g id="Captions">
</g>
<g id="Your_Icon">
	<path d="M38.38,85.586h-7.52c-2.595,0-4.708-2.112-4.708-4.711V19.606c0-2.597,2.113-4.71,4.708-4.71h7.52   c1.481,0,2.685-1.202,2.685-2.685c0-1.482-1.203-2.685-2.685-2.685h-7.52c-5.557,0-10.077,4.522-10.077,10.079v61.269   c0,5.558,4.521,10.08,10.077,10.08h7.52c1.481,0,2.685-1.203,2.685-2.685C41.064,86.787,39.861,85.586,38.38,85.586z"/>
	<path d="M69.137,9.527H61.62c-1.483,0-2.685,1.202-2.685,2.685c0,1.483,1.201,2.685,2.685,2.685h7.517   c2.598,0,4.711,2.113,4.711,4.71v61.269c0,2.599-2.113,4.711-4.711,4.711H61.62c-1.483,0-2.685,1.201-2.685,2.685   c0,1.481,1.201,2.685,2.685,2.685h7.517c5.558,0,10.08-4.522,10.08-10.08V19.606C79.217,14.049,74.694,9.527,69.137,9.527z"/>
	<path d="M60.136,52.59V39.191c0-2.918-2.232-5.773-5.599-5.773l-9.142-0.006c-3.067,0-5.532,2.535-5.532,5.698v13.48   c0,2.621,3.78,2.621,3.78,0V40.264h0.896v34.154c0,3.503,5.036,3.4,5.036,0V54.423h0.865v19.995c0,3.4,5.065,3.503,5.065,0V40.264   h0.873V52.59C56.38,55.23,60.142,55.23,60.136,52.59z"/>
	<circle cx="49.99" cy="27.83" r="4.356"/>
	<path d="M44.718,8.638h2.597v4.659c0,1.484,1.203,2.685,2.685,2.685c1.483,0,2.685-1.201,2.685-2.685V8.638h2.598   c0.004-0.001,0.01-0.001,0.014,0c0.927,0,1.678-0.752,1.678-1.678c0-0.528-0.244-0.999-0.624-1.307l-5.162-5.162   c-0.655-0.656-1.718-0.656-2.373,0l-5.282,5.281c-0.479,0.479-0.624,1.202-0.364,1.83C43.427,8.229,44.04,8.638,44.718,8.638z"/>
	<path d="M55.281,91.361h-2.598v-4.658c0-1.484-1.201-2.685-2.685-2.685c-1.481,0-2.685,1.2-2.685,2.685v4.658h-2.597   c-0.678,0-1.291,0.409-1.551,1.036c-0.26,0.628-0.115,1.35,0.364,1.83l5.282,5.281C49.142,99.836,49.57,100,49.999,100   c0.43,0,0.859-0.164,1.188-0.491l5.281-5.281c0.479-0.48,0.622-1.202,0.363-1.83C56.571,91.771,55.96,91.361,55.281,91.361z"/>
</g>
</svg>